<svg width="128" height="128" viewBox="0 0 128 128" fill="none" xmlns="http://www.w3.org/2000/svg">
  <!-- Gradient background -->
  <defs>
    <linearGradient id="grad" x1="0%" y1="0%" x2="100%" y2="100%">
      <stop offset="0%" style="stop-color:#667eea;stop-opacity:1" />
      <stop offset="100%" style="stop-color:#764ba2;stop-opacity:1" />
    </linearGradient>
  </defs>

  <!-- Background circle -->
  <circle cx="64" cy="64" r="60" fill="url(#grad)"/>

  <!-- Octopus body (simplified) -->
  <ellipse cx="64" cy="50" rx="28" ry="32" fill="white" opacity="0.9"/>

  <!-- Eyes -->
  <circle cx="54" cy="45" r="4" fill="#667eea"/>
  <circle cx="74" cy="45" r="4" fill="#667eea"/>

  <!-- Tentacles (8 arms) -->
  <path d="M 48 70 Q 40 85, 35 95" stroke="white" stroke-width="4" fill="none" opacity="0.8" stroke-linecap="round"/>
  <path d="M 55 72 Q 50 90, 45 105" stroke="white" stroke-width="4" fill="none" opacity="0.8" stroke-linecap="round"/>
  <path d="M 64 74 Q 64 95, 62 110" stroke="white" stroke-width="4" fill="none" opacity="0.8" stroke-linecap="round"/>
  <path d="M 73 72 Q 78 90, 83 105" stroke="white" stroke-width="4" fill="none" opacity="0.8" stroke-linecap="round"/>
  <path d="M 80 70 Q 88 85, 93 95" stroke="white" stroke-width="4" fill="none" opacity="0.8" stroke-linecap="round"/>
  <path d="M 42 68 Q 30 80, 22 88" stroke="white" stroke-width="4" fill="none" opacity="0.8" stroke-linecap="round"/>
  <path d="M 86 68 Q 98 80, 106 88" stroke="white" stroke-width="4" fill="none" opacity="0.8" stroke-linecap="round"/>
  <path d="M 64 76 Q 64 98, 66 115" stroke="white" stroke-width="4" fill="none" opacity="0.8" stroke-linecap="round"/>

  <!-- Shield overlay (security symbol) -->
  <path d="M 64 35 L 72 38 L 72 48 Q 72 55, 64 58 Q 56 55, 56 48 L 56 38 Z" fill="#667eea" opacity="0.7"/>
</svg>
